<?xml version="1.0" standalone="no"?>
<!DOCTYPE svg PUBLIC "-//W3C//DTD SVG 20010904//EN"
 "http://www.w3.org/TR/2001/REC-SVG-20010904/DTD/svg10.dtd">
<svg version="1.0" xmlns="http://www.w3.org/2000/svg"
 width="467.000000pt" height="467.000000pt" viewBox="0 0 467.000000 467.000000"
 preserveAspectRatio="xMidYMid meet">

<g transform="translate(0.000000,467.000000) scale(0.100000,-0.100000)"
fill='#007FFF' stroke="none">
<path d="M1278 3365 c-576 -303 -1056 -558 -1068 -566 -21 -14 42 -48 1046
-576 l1069 -562 623 315 622 315 0 -449 c0 -469 4 -525 44 -617 56 -125 192
-216 359 -239 l47 -7 0 108 0 109 -62 19 c-79 24 -139 80 -156 147 -8 33 -12
199 -12 550 l0 503 335 185 c184 101 331 187 327 191 -4 4 -452 242 -997 529
-545 287 -1021 539 -1060 559 l-70 38 -1047 -552z"/>
<path d="M1310 1630 c0 -218 2 -247 21 -303 26 -76 75 -145 137 -190 38 -28
661 -306 817 -365 l41 -15 364 183 c384 192 471 243 556 325 89 87 89 86 92
363 2 133 1 242 -2 242 -7 0 -344 -162 -750 -359 -137 -67 -254 -121 -261
-121 -7 0 -236 108 -510 240 -273 132 -499 240 -501 240 -2 0 -4 -108 -4 -240z"/>
</g>
</svg>
